# xmcd
#
# Track frame offsets: 
#        150
#        17309
#        36644
#        56184
#        76193
#        93920
#        106243
#        122846
#        139434
#        154758
#
# Disc length: 2299 seconds
#
# Revision: 0
# Processed by: cddbd v1.5.2PL0 Copyright (c) Steve Scherf et al.
# Submitted via: ExactAudioCopy v0.99pb4
#
DISCID=7f08f90a
DTITLE=ฝน ธนสุนทร - รักนี้ไม่มีลืม
DYEAR=2009
DGENRE=Country
TTITLE0=เลิกไปเลย
TTITLE1=รักนี้ไม่มีลืม
TTITLE2=กลัว
TTITLE3=เธออยู่ไหน
TTITLE4=ไม่รักฉันให้มันรู้ไป
TTITLE5=ปิดสวิตช์
TTITLE6=ขอเวลาฉันหน่อย
TTITLE7=อย่าให้ฉันรู้เป็นคนสุดท้าย
TTITLE8=ลืมได้ก็หายเอง
TTITLE9=กว่าเราจะหากันเจอ
EXTD=
EXTT0=
EXTT1=
EXTT2=
EXTT3=
EXTT4=
EXTT5=
EXTT6=
EXTT7=
EXTT8=
EXTT9=
PLAYORDER=
